<mxfile host="Electron" modified="2022-08-24T09:25:59.679Z" agent="5.0 (Windows NT 10.0; Win64; x64) AppleWebKit/537.36 (KHTML, like Gecko) draw.io/14.6.13 Chrome/89.0.4389.128 Electron/12.0.7 Safari/537.36" etag="VF_j7QxX2f6cDFrPQVY_" compressed="false" version="14.6.13" type="device">
  <diagram id="dzslenoz5EgcA-fO8ZGD" name="Page-1">
    <mxGraphModel dx="1024" dy="600" grid="1" gridSize="10" guides="1" tooltips="1" connect="1" arrows="1" fold="1" page="1" pageScale="1" pageWidth="827" pageHeight="1169" math="0" shadow="0">
      <root>
        <mxCell id="0" />
        <mxCell id="1" parent="0" />
        <object label="org.guce.process.vt2" element="package" placeholders="1" id="Sb3ObpHVFGHvWsoK8jhT-4">
          <mxCell style="shape=folder;fontStyle=1;spacingTop=10;tabWidth=40;tabHeight=14;tabPosition=left;html=1;container=1;fillColor=none;labelPosition=center;verticalLabelPosition=middle;align=center;verticalAlign=middle;spacingLeft=0;fontSize=11;" parent="1" vertex="1">
            <mxGeometry x="40" y="240" width="736" height="730" as="geometry" />
          </mxCell>
        </object>
        <object label="CoreRecord" element="existingClass" description="" entity="org.guce.core.entities.CoreRecord" xml="" id="Sb3ObpHVFGHvWsoK8jhT-13">
          <mxCell style="swimlane;fontStyle=3;align=center;verticalAlign=top;childLayout=stackLayout;horizontal=1;startSize=26;horizontalStack=0;resizeParent=1;resizeLast=0;collapsible=1;marginBottom=0;rounded=0;shadow=0;strokeWidth=1;fillColor=#f0a30a;strokeColor=#BD7000;container=1;snapToPoint=1;fixDash=1;dropTarget=1;expand=1;treeMoving=1;fontSize=11;fontColor=#000000;" parent="Sb3ObpHVFGHvWsoK8jhT-4" vertex="1">
            <mxGeometry x="43.15" y="49.47493506493507" width="110" height="55.97298701298701" as="geometry">
              <mxRectangle x="230" y="140" width="160" height="26" as="alternateBounds" />
            </mxGeometry>
          </mxCell>
        </object>
        <mxCell id="Sb3ObpHVFGHvWsoK8jhT-14" value="" style="line;strokeWidth=1;fillColor=none;align=left;verticalAlign=middle;spacingTop=-1;spacingLeft=3;spacingRight=3;rotatable=0;labelPosition=right;points=[];portConstraint=eastwest;fontSize=11;" parent="Sb3ObpHVFGHvWsoK8jhT-13" vertex="1">
          <mxGeometry y="26" width="110" height="14.226275701404647" as="geometry" />
        </mxCell>
        <object label="CoreCharger" element="existingClass" description="" entity="org.guce.core.entities.CoreCharger" xml="" id="Sb3ObpHVFGHvWsoK8jhT-16">
          <mxCell style="swimlane;fontStyle=3;align=center;verticalAlign=top;childLayout=stackLayout;horizontal=1;startSize=26;horizontalStack=0;resizeParent=1;resizeLast=0;collapsible=1;marginBottom=0;rounded=0;shadow=0;strokeWidth=1;fillColor=#f0a30a;strokeColor=#BD7000;container=1;snapToPoint=1;fixDash=1;dropTarget=1;expand=1;treeMoving=1;fontSize=11;fontColor=#000000;" parent="Sb3ObpHVFGHvWsoK8jhT-4" vertex="1">
            <mxGeometry x="220" y="53.764935064935074" width="96.36" height="47.4025974025974" as="geometry">
              <mxRectangle x="230" y="140" width="160" height="26" as="alternateBounds" />
            </mxGeometry>
          </mxCell>
        </object>
        <mxCell id="Sb3ObpHVFGHvWsoK8jhT-17" value="" style="line;strokeWidth=1;fillColor=none;align=left;verticalAlign=middle;spacingTop=-1;spacingLeft=3;spacingRight=3;rotatable=0;labelPosition=right;points=[];portConstraint=eastwest;fontSize=11;" parent="Sb3ObpHVFGHvWsoK8jhT-16" vertex="1">
          <mxGeometry y="26" width="96.36" height="13.210113151304316" as="geometry" />
        </mxCell>
        <object label="CoreCAD" element="existingClass" description="" entity="org.guce.core.entities.CoreCAD" xml="" id="Sb3ObpHVFGHvWsoK8jhT-18">
          <mxCell style="swimlane;fontStyle=3;align=center;verticalAlign=top;childLayout=stackLayout;horizontal=1;startSize=26;horizontalStack=0;resizeParent=1;resizeLast=0;collapsible=1;marginBottom=0;rounded=0;shadow=0;strokeWidth=1;fillColor=#f0a30a;strokeColor=#BD7000;container=1;snapToPoint=1;fixDash=1;dropTarget=1;expand=1;treeMoving=1;fontSize=11;fontColor=#000000;" parent="Sb3ObpHVFGHvWsoK8jhT-4" vertex="1">
            <mxGeometry x="36.25" y="635.1917794970988" width="116.9" height="65.28840425531914" as="geometry">
              <mxRectangle x="230" y="140" width="160" height="26" as="alternateBounds" />
            </mxGeometry>
          </mxCell>
        </object>
        <mxCell id="Sb3ObpHVFGHvWsoK8jhT-19" value="" style="line;strokeWidth=1;fillColor=none;align=left;verticalAlign=middle;spacingTop=-1;spacingLeft=3;spacingRight=3;rotatable=0;labelPosition=right;points=[];portConstraint=eastwest;fontSize=11;" parent="Sb3ObpHVFGHvWsoK8jhT-18" vertex="1">
          <mxGeometry y="26" width="116.9" height="13.210113151304315" as="geometry" />
        </mxCell>
        <object label="CorePays" element="existingClass" description="" entity="org.guce.rep.entities.CorePays" xml="" id="Sb3ObpHVFGHvWsoK8jhT-21">
          <mxCell style="swimlane;fontStyle=3;align=center;verticalAlign=top;childLayout=stackLayout;horizontal=1;startSize=26;horizontalStack=0;resizeParent=1;resizeLast=0;collapsible=1;marginBottom=0;rounded=0;shadow=0;strokeWidth=1;fillColor=#f0a30a;strokeColor=#BD7000;container=1;snapToPoint=1;fixDash=1;dropTarget=1;expand=1;treeMoving=1;fontSize=11;fontColor=#000000;" parent="Sb3ObpHVFGHvWsoK8jhT-4" vertex="1">
            <mxGeometry x="590" y="44.54038961038961" width="107.91" height="56.62714285714285" as="geometry">
              <mxRectangle x="230" y="140" width="160" height="26" as="alternateBounds" />
            </mxGeometry>
          </mxCell>
        </object>
        <mxCell id="Sb3ObpHVFGHvWsoK8jhT-22" value="" style="line;strokeWidth=1;fillColor=none;align=left;verticalAlign=middle;spacingTop=-1;spacingLeft=3;spacingRight=3;rotatable=0;labelPosition=right;points=[];portConstraint=eastwest;fontSize=11;" parent="Sb3ObpHVFGHvWsoK8jhT-21" vertex="1">
          <mxGeometry y="26" width="107.91" height="13.210113151304316" as="geometry" />
        </mxCell>
        <object label="RepCustomsOffice" element="existingClass" description="" entity="org.guce.rep.entities.RepCustomsOffice" xml="" id="Sb3ObpHVFGHvWsoK8jhT-93">
          <mxCell style="swimlane;fontStyle=3;align=center;verticalAlign=top;childLayout=stackLayout;horizontal=1;startSize=26;horizontalStack=0;resizeParent=1;resizeLast=0;collapsible=1;marginBottom=0;rounded=0;shadow=0;strokeWidth=1;fillColor=#f0a30a;strokeColor=#BD7000;container=1;snapToPoint=1;fixDash=1;dropTarget=1;expand=1;treeMoving=1;fontSize=11;fontColor=#000000;" parent="Sb3ObpHVFGHvWsoK8jhT-4" vertex="1">
            <mxGeometry x="360.99999999999994" y="39.9968831168831" width="120" height="74.94350649350649" as="geometry">
              <mxRectangle x="230" y="140" width="160" height="26" as="alternateBounds" />
            </mxGeometry>
          </mxCell>
        </object>
        <mxCell id="Sb3ObpHVFGHvWsoK8jhT-94" value="" style="line;strokeWidth=1;fillColor=none;align=left;verticalAlign=middle;spacingTop=-1;spacingLeft=3;spacingRight=3;rotatable=0;labelPosition=right;points=[];portConstraint=eastwest;fontSize=11;" parent="Sb3ObpHVFGHvWsoK8jhT-93" vertex="1">
          <mxGeometry y="26" width="120" height="13.210113151304316" as="geometry" />
        </mxCell>
        <object label="RepTransportMode" element="existingClass" description="" entity="org.guce.rep.entities.RepTransportMode" xml="" id="Sb3ObpHVFGHvWsoK8jhT-101">
          <mxCell style="swimlane;fontStyle=3;align=center;verticalAlign=top;childLayout=stackLayout;horizontal=1;startSize=26;horizontalStack=0;resizeParent=1;resizeLast=0;collapsible=1;marginBottom=0;rounded=0;shadow=0;strokeWidth=1;fillColor=#f0a30a;strokeColor=#BD7000;container=1;snapToPoint=1;fixDash=1;dropTarget=1;expand=1;treeMoving=1;fontSize=11;fontColor=#000000;" parent="Sb3ObpHVFGHvWsoK8jhT-4" vertex="1">
            <mxGeometry x="510" y="641.8688891959105" width="150" height="58.60968085106383" as="geometry">
              <mxRectangle x="230" y="140" width="160" height="26" as="alternateBounds" />
            </mxGeometry>
          </mxCell>
        </object>
        <mxCell id="Sb3ObpHVFGHvWsoK8jhT-102" value="" style="line;strokeWidth=1;fillColor=none;align=left;verticalAlign=middle;spacingTop=-1;spacingLeft=3;spacingRight=3;rotatable=0;labelPosition=right;points=[];portConstraint=eastwest;fontSize=11;" parent="Sb3ObpHVFGHvWsoK8jhT-101" vertex="1">
          <mxGeometry y="26" width="150" height="13.210113151304316" as="geometry" />
        </mxCell>
        <object label="VT2Registration" element="class" table_name="VT2_MINEPDED_REGISTRATION" package_name="" xml_element="CONTENT" json_element="" description="" code="VT2" has_containers="false" columns="Supplier:supplier.chargername,loadingPlaceLabel:transport.loadingPlace.custOffLibelle" referenceField="vtReference" afterFields="vtDate,vtReference" author="NGC" process_description="Visa technique MINEPDED" attachments_types="BL:Connaissement,FACTURE:Facture" charger_xml_name="CLIENT" requestCode="01" responseCICode="11" ciCode="02" validationCode="04" modicationRequestCode="09" modificationCode="10" rejectCode="03" invoice.activity="false" partner.code="MINEPDED" process_descriptionEn="Technical Visa MINEPDED" goods.type="CT" payment.activity="true" id="Sb3ObpHVFGHvWsoK8jhT-5">
          <mxCell style="swimlane;fontStyle=3;align=center;verticalAlign=top;childLayout=stackLayout;horizontal=1;startSize=26;horizontalStack=0;resizeParent=1;resizeLast=0;collapsible=1;marginBottom=0;rounded=0;shadow=0;strokeWidth=2;fillColor=#f8cecc;strokeColor=#b85450;container=1;snapToPoint=1;fixDash=1;dropTarget=1;expand=1;treeMoving=1;fontSize=11;perimeterSpacing=0;swimlaneLine=1;sketch=0;" parent="Sb3ObpHVFGHvWsoK8jhT-4" vertex="1">
            <mxGeometry x="25.49" y="407.5001602652667" width="138.42" height="118.22627570140465" as="geometry">
              <mxRectangle x="65.99555555555555" y="230.0046153846154" width="160" height="26" as="alternateBounds" />
            </mxGeometry>
          </mxCell>
        </object>
        <object label="officeCode" type="string" element="field" label_name="Bureau" column_name="OFFICE_CODE" max_size="35" min_size="" options="BC-SNP:Yaoundé" optionsClass="" nullable="" unique="" xml_element="CODE_BUREAU" sequence="1" label_nameEn="Office" id="H-aZSpLhL-oLSM1OxbNI-8">
          <mxCell style="text;strokeColor=none;fillColor=none;align=left;verticalAlign=top;spacingLeft=4;spacingRight=4;overflow=hidden;rotatable=0;points=[[0,0.5],[1,0.5]];portConstraint=eastwest;connectable=0;allowArrows=0;autosize=0;resizable=0;shadow=0;sketch=0;fontSize=11;" parent="Sb3ObpHVFGHvWsoK8jhT-5" vertex="1">
            <mxGeometry y="26" width="138.42" height="26" as="geometry" />
          </mxCell>
        </object>
        <object label="vtReference" type="string" element="field" label_name="N° Visa Technique" column_name="REFERENCE_VT" max_size="35" min_size="" options="" optionsClass="" nullable="" unique="" xml_element="NUMERO_VT_MINEPDED" sequence="3" label_nameEn="Technical Visa Number" id="H-aZSpLhL-oLSM1OxbNI-9">
          <mxCell style="text;strokeColor=none;fillColor=none;align=left;verticalAlign=top;spacingLeft=4;spacingRight=4;overflow=hidden;rotatable=0;points=[[0,0.5],[1,0.5]];portConstraint=eastwest;connectable=0;allowArrows=0;autosize=0;resizable=0;shadow=0;sketch=0;fontSize=11;" parent="Sb3ObpHVFGHvWsoK8jhT-5" vertex="1">
            <mxGeometry y="52" width="138.42" height="26" as="geometry" />
          </mxCell>
        </object>
        <object label="vtDate" type="date" element="field" label_name="Date visa technique" column_name="VT_DATE" max_size="" min_size="" options="" optionsClass="" nullable="" unique="" xml_element="DATE_VT_MINEPDED" sequence="2" label_nameEn="Technical Visa Date" id="H-aZSpLhL-oLSM1OxbNI-11">
          <mxCell style="text;strokeColor=none;fillColor=none;align=left;verticalAlign=top;spacingLeft=4;spacingRight=4;overflow=hidden;rotatable=0;points=[[0,0.5],[1,0.5]];portConstraint=eastwest;connectable=0;allowArrows=0;autosize=0;resizable=0;shadow=0;sketch=0;fontSize=11;" parent="Sb3ObpHVFGHvWsoK8jhT-5" vertex="1">
            <mxGeometry y="78" width="138.42" height="26" as="geometry" />
          </mxCell>
        </object>
        <mxCell id="Sb3ObpHVFGHvWsoK8jhT-7" value="" style="line;strokeWidth=1;fillColor=none;align=left;verticalAlign=middle;spacingTop=-1;spacingLeft=3;spacingRight=3;rotatable=0;labelPosition=right;points=[];portConstraint=eastwest;fontSize=11;" parent="Sb3ObpHVFGHvWsoK8jhT-5" vertex="1">
          <mxGeometry y="104" width="138.42" height="14.226275701404647" as="geometry" />
        </mxCell>
        <object label="Extends" element="extends" id="Sb3ObpHVFGHvWsoK8jhT-15">
          <mxCell style="endArrow=block;endSize=16;endFill=0;html=1;sourcePerimeterSpacing=-4;strokeWidth=1;fontSize=11;align=center;snapToPoint=1;fixDash=1;entryX=0.5;entryY=1;entryDx=0;entryDy=0;exitX=0.25;exitY=0;exitDx=0;exitDy=0;" parent="Sb3ObpHVFGHvWsoK8jhT-4" source="Sb3ObpHVFGHvWsoK8jhT-5" target="Sb3ObpHVFGHvWsoK8jhT-13" edge="1">
            <mxGeometry width="160" relative="1" as="geometry">
              <mxPoint x="125.73333333333335" y="284.52551402809297" as="sourcePoint" />
              <mxPoint x="289.28888888888895" y="284.52551402809297" as="targetPoint" />
            </mxGeometry>
          </mxCell>
        </object>
        <object label="cad" join_table="" join_column="" inverse_join_column="" mapped_by="" unique="" cascade="" inverse_name="" element="relation" fetch_type="" orphan_removal="" xml_element="TRANSITAIRE" sequence="12" label_nameEn="Clearing Agent" label_name="Transitaire" id="Sb3ObpHVFGHvWsoK8jhT-23">
          <mxCell style="endArrow=classic;shadow=0;strokeWidth=1;rounded=0;endFill=1;elbow=vertical;endSize=10;startSize=10;sourcePerimeterSpacing=0;startArrow=oval;startFill=1;align=center;snapToPoint=1;targetPerimeterSpacing=0;fontSize=11;spacingRight=0;spacingBottom=2;spacing=0;fixDash=1;entryX=0.5;entryY=0;entryDx=0;entryDy=0;" parent="Sb3ObpHVFGHvWsoK8jhT-4" source="Sb3ObpHVFGHvWsoK8jhT-5" target="Sb3ObpHVFGHvWsoK8jhT-18" edge="1">
            <mxGeometry x="-0.0123" relative="1" as="geometry">
              <mxPoint x="218.03753351206433" y="429.3286774173903" as="sourcePoint" />
              <mxPoint x="115" y="594.8148148148148" as="targetPoint" />
              <mxPoint as="offset" />
              <Array as="points" />
            </mxGeometry>
          </mxCell>
        </object>
        <object label="n" element="card" id="Sb3ObpHVFGHvWsoK8jhT-24">
          <mxCell style="resizable=0;align=left;verticalAlign=bottom;labelBackgroundColor=none;fontSize=11;fontStyle=1;spacing=4;" parent="Sb3ObpHVFGHvWsoK8jhT-23" connectable="0" vertex="1">
            <mxGeometry x="-1" relative="1" as="geometry">
              <mxPoint y="21" as="offset" />
            </mxGeometry>
          </mxCell>
        </object>
        <object label="1" element="card" id="Sb3ObpHVFGHvWsoK8jhT-25">
          <mxCell style="resizable=0;align=right;verticalAlign=bottom;labelBackgroundColor=none;fontSize=11;fontStyle=1;spacing=4;" parent="Sb3ObpHVFGHvWsoK8jhT-23" connectable="0" vertex="1">
            <mxGeometry x="1" relative="1" as="geometry">
              <mxPoint x="15" as="offset" />
            </mxGeometry>
          </mxCell>
        </object>
        <object label="origin" join_table="" join_column="" inverse_join_column="" mapped_by="" unique="" cascade="" inverse_name="" element="relation" fetch_type="" orphan_removal="" xml_element="PAYS_ORIGINE" sequence="4" label_name="Pays d&#39;origine" label_nameEn="Origin Country" id="Sb3ObpHVFGHvWsoK8jhT-27">
          <mxCell style="endArrow=classic;shadow=0;strokeWidth=1;rounded=0;endFill=1;endSize=10;startSize=10;sourcePerimeterSpacing=0;startArrow=oval;startFill=1;align=center;snapToPoint=1;targetPerimeterSpacing=0;fontSize=11;spacingRight=0;spacingBottom=2;spacing=0;fixDash=1;edgeStyle=elbowEdgeStyle;elbow=vertical;exitX=0.936;exitY=-0.014;exitDx=0;exitDy=0;exitPerimeter=0;" parent="Sb3ObpHVFGHvWsoK8jhT-4" source="vLi7R-2AJWSlNqhlG2X7-10" target="Sb3ObpHVFGHvWsoK8jhT-21" edge="1">
            <mxGeometry x="-0.0123" relative="1" as="geometry">
              <mxPoint x="242.70241286863268" y="429.6038881080418" as="sourcePoint" />
              <mxPoint x="630" y="246.4935064935065" as="targetPoint" />
              <mxPoint as="offset" />
            </mxGeometry>
          </mxCell>
        </object>
        <object label="n" element="card" id="Sb3ObpHVFGHvWsoK8jhT-28">
          <mxCell style="resizable=0;align=left;verticalAlign=bottom;labelBackgroundColor=none;fontSize=11;fontStyle=1;spacing=4;" parent="Sb3ObpHVFGHvWsoK8jhT-27" connectable="0" vertex="1">
            <mxGeometry x="-1" relative="1" as="geometry">
              <mxPoint as="offset" />
            </mxGeometry>
          </mxCell>
        </object>
        <object label="1" element="card" id="Sb3ObpHVFGHvWsoK8jhT-29">
          <mxCell style="resizable=0;align=right;verticalAlign=bottom;labelBackgroundColor=none;fontSize=11;fontStyle=1;spacing=4;" parent="Sb3ObpHVFGHvWsoK8jhT-27" connectable="0" vertex="1">
            <mxGeometry x="1" relative="1" as="geometry">
              <mxPoint x="-7" y="24" as="offset" />
            </mxGeometry>
          </mxCell>
        </object>
        <object label="supplier" join_table="" join_column="" inverse_join_column="" mapped_by="" unique="" cascade="" inverse_name="" element="relation" fetch_type="" orphan_removal="" xml_element="FOURNISSEUR" sequence="11" label_name="Fournisseur" label_nameEn="Supplier" id="Sb3ObpHVFGHvWsoK8jhT-31">
          <mxCell style="endArrow=classic;shadow=0;strokeWidth=1;rounded=0;endFill=1;elbow=vertical;endSize=10;startSize=10;sourcePerimeterSpacing=0;startArrow=oval;startFill=1;align=center;snapToPoint=1;targetPerimeterSpacing=0;fontSize=11;spacingRight=0;spacingBottom=2;spacing=0;fixDash=1;exitX=1;exitY=0.25;exitDx=0;exitDy=0;" parent="Sb3ObpHVFGHvWsoK8jhT-4" source="Sb3ObpHVFGHvWsoK8jhT-5" target="Sb3ObpHVFGHvWsoK8jhT-16" edge="1">
            <mxGeometry x="-0.0123" relative="1" as="geometry">
              <mxPoint x="193.37265415549598" y="346.7654702217383" as="sourcePoint" />
              <mxPoint x="430.15549597855227" y="280.7149044652167" as="targetPoint" />
              <mxPoint as="offset" />
              <Array as="points" />
            </mxGeometry>
          </mxCell>
        </object>
        <object label="n" element="card" id="Sb3ObpHVFGHvWsoK8jhT-32">
          <mxCell style="resizable=0;align=left;verticalAlign=bottom;labelBackgroundColor=none;fontSize=11;fontStyle=1;spacing=4;" parent="Sb3ObpHVFGHvWsoK8jhT-31" connectable="0" vertex="1">
            <mxGeometry x="-1" relative="1" as="geometry">
              <mxPoint x="11" as="offset" />
            </mxGeometry>
          </mxCell>
        </object>
        <object label="1" element="card" id="Sb3ObpHVFGHvWsoK8jhT-33">
          <mxCell style="resizable=0;align=right;verticalAlign=bottom;labelBackgroundColor=none;fontSize=11;fontStyle=1;spacing=4;" parent="Sb3ObpHVFGHvWsoK8jhT-31" connectable="0" vertex="1">
            <mxGeometry x="1" relative="1" as="geometry">
              <mxPoint x="14" y="23" as="offset" />
            </mxGeometry>
          </mxCell>
        </object>
        <object label="Invoice" element="embeddable" table_name="" package_name="" xml_element="" json_element="" description="" id="Sb3ObpHVFGHvWsoK8jhT-43">
          <mxCell style="swimlane;fontStyle=3;align=center;verticalAlign=top;childLayout=stackLayout;horizontal=1;startSize=26;horizontalStack=0;resizeParent=1;resizeLast=0;collapsible=1;marginBottom=0;rounded=0;shadow=0;strokeWidth=1;container=1;snapToPoint=1;fixDash=1;dropTarget=1;expand=1;treeMoving=1;fillColor=#14F89D;strokeColor=#006600;fontSize=11;" parent="Sb3ObpHVFGHvWsoK8jhT-4" vertex="1">
            <mxGeometry x="310" y="407.5044155844156" width="110" height="156.7053607368109" as="geometry">
              <mxRectangle x="230" y="140" width="160" height="26" as="alternateBounds" />
            </mxGeometry>
          </mxCell>
        </object>
        <object label="invoiceNumber" type="string" element="field" label_name="N°FACTURE" column_name="INVOICE_NUMBER" max_size="150" min_size="" options="" optionsClass="" nullable="" unique="" xml_element="NUMERO_FACTURE" sequence="1" label_nameEn="Invoice Number" id="Sb3ObpHVFGHvWsoK8jhT-44">
          <mxCell style="text;strokeColor=none;fillColor=none;align=left;verticalAlign=top;spacingLeft=4;spacingRight=4;overflow=hidden;rotatable=0;points=[[0,0.5],[1,0.5]];portConstraint=eastwest;allowArrows=0;resizable=0;connectable=0;fontSize=11;" parent="Sb3ObpHVFGHvWsoK8jhT-43" vertex="1">
            <mxGeometry y="26" width="110" height="34.666666666666664" as="geometry" />
          </mxCell>
        </object>
        <object label="invoiceDate" type="date" element="field" label_name="Date Facture" column_name="INVOICE_DATE" max_size="" min_size="" options="" optionsClass="" nullable="" unique="" xml_element="DATE_FACTURE" sequence="2" label_nameEn="Invoice Date" id="Sb3ObpHVFGHvWsoK8jhT-45">
          <mxCell style="text;strokeColor=none;fillColor=none;align=left;verticalAlign=top;spacingLeft=4;spacingRight=4;overflow=hidden;rotatable=0;points=[[0,0.5],[1,0.5]];portConstraint=eastwest;connectable=0;allowArrows=0;autosize=0;resizable=0;fontSize=11;" parent="Sb3ObpHVFGHvWsoK8jhT-43" vertex="1">
            <mxGeometry y="60.666666666666664" width="110" height="26" as="geometry" />
          </mxCell>
        </object>
        <object label="invoiceAmount" type="bigdecimal" element="field" label_name="Montant Facture" column_name="INVOICE_AMOUNT" max_size="" min_size="" options="" optionsClass="" nullable="" unique="" xml_element="MONTANT_FACTURE" sequence="3" label_nameEn="Invoice Amount" id="MMoQDWghkzFwq_rW3yn7-1">
          <mxCell style="text;strokeColor=none;fillColor=none;align=left;verticalAlign=top;spacingLeft=4;spacingRight=4;overflow=hidden;rotatable=0;points=[[0,0.5],[1,0.5]];portConstraint=eastwest;allowArrows=0;resizable=0;connectable=0;fontSize=11;" parent="Sb3ObpHVFGHvWsoK8jhT-43" vertex="1">
            <mxGeometry y="86.66666666666666" width="110" height="34.666666666666664" as="geometry" />
          </mxCell>
        </object>
        <mxCell id="Sb3ObpHVFGHvWsoK8jhT-50" value="" style="line;strokeWidth=1;fillColor=none;align=left;verticalAlign=middle;spacingTop=-1;spacingLeft=3;spacingRight=3;rotatable=0;labelPosition=right;points=[];portConstraint=eastwest;fontSize=11;" parent="Sb3ObpHVFGHvWsoK8jhT-43" vertex="1">
          <mxGeometry y="121.33333333333331" width="110" height="35.37202740347758" as="geometry" />
        </mxCell>
        <object label="loadingPlace" join_table="" join_column="" inverse_join_column="" mapped_by="" unique="" cascade="" inverse_name="" element="relation" fetch_type="" orphan_removal="" xml_element="LIEU_CHARGEMENT" sequence="7" label_name="Lieu de chargement" label_nameEn="Loading Place" id="Sb3ObpHVFGHvWsoK8jhT-95">
          <mxCell style="endArrow=classic;shadow=0;strokeWidth=1;rounded=0;endFill=1;elbow=vertical;endSize=10;startSize=10;sourcePerimeterSpacing=0;startArrow=oval;startFill=1;align=center;snapToPoint=1;targetPerimeterSpacing=0;fontSize=11;spacingRight=0;spacingBottom=2;spacing=0;fixDash=1;entryX=0.75;entryY=1;entryDx=0;entryDy=0;" parent="Sb3ObpHVFGHvWsoK8jhT-4" source="vLi7R-2AJWSlNqhlG2X7-10" target="Sb3ObpHVFGHvWsoK8jhT-93" edge="1">
            <mxGeometry x="-0.0123" relative="1" as="geometry">
              <mxPoint x="588.0107238605898" y="528.6797367428243" as="sourcePoint" />
              <mxPoint x="824.7935656836461" y="528.4045260521725" as="targetPoint" />
              <mxPoint as="offset" />
            </mxGeometry>
          </mxCell>
        </object>
        <object label="n" element="card" id="Sb3ObpHVFGHvWsoK8jhT-96">
          <mxCell style="resizable=0;align=left;verticalAlign=bottom;labelBackgroundColor=none;fontSize=11;fontStyle=1;spacing=4;" parent="Sb3ObpHVFGHvWsoK8jhT-95" connectable="0" vertex="1">
            <mxGeometry x="-1" relative="1" as="geometry">
              <mxPoint as="offset" />
            </mxGeometry>
          </mxCell>
        </object>
        <object label="1" element="card" id="Sb3ObpHVFGHvWsoK8jhT-97">
          <mxCell style="resizable=0;align=right;verticalAlign=bottom;labelBackgroundColor=none;fontSize=11;fontStyle=1;spacing=4;" parent="Sb3ObpHVFGHvWsoK8jhT-95" connectable="0" vertex="1">
            <mxGeometry x="1" relative="1" as="geometry">
              <mxPoint x="21" y="23" as="offset" />
            </mxGeometry>
          </mxCell>
        </object>
        <object label="transportMode" join_table="" join_column="" inverse_join_column="" mapped_by="" unique="" cascade="" inverse_name="" element="relation" fetch_type="" orphan_removal="" xml_element="MODE_TRANSPORT" sequence="8" label_name="Mode de transport" label_nameEn="Transport Mode" id="Sb3ObpHVFGHvWsoK8jhT-103">
          <mxCell style="endArrow=classic;shadow=0;strokeWidth=1;rounded=0;endFill=1;elbow=vertical;endSize=10;startSize=10;sourcePerimeterSpacing=0;startArrow=oval;startFill=1;align=center;snapToPoint=1;targetPerimeterSpacing=0;fontSize=11;spacingRight=0;spacingBottom=2;spacing=0;fixDash=1;entryX=0.5;entryY=0;entryDx=0;entryDy=0;" parent="Sb3ObpHVFGHvWsoK8jhT-4" source="vLi7R-2AJWSlNqhlG2X7-10" target="Sb3ObpHVFGHvWsoK8jhT-101" edge="1">
            <mxGeometry x="-0.0123" relative="1" as="geometry">
              <mxPoint x="173.6407506702413" y="660.7808682558673" as="sourcePoint" />
              <mxPoint x="410.4235924932976" y="660.5056575652159" as="targetPoint" />
              <mxPoint as="offset" />
              <Array as="points" />
            </mxGeometry>
          </mxCell>
        </object>
        <object label="n" element="card" id="Sb3ObpHVFGHvWsoK8jhT-104">
          <mxCell style="resizable=0;align=left;verticalAlign=bottom;labelBackgroundColor=none;fontSize=11;fontStyle=1;spacing=4;" parent="Sb3ObpHVFGHvWsoK8jhT-103" connectable="0" vertex="1">
            <mxGeometry x="-1" relative="1" as="geometry">
              <mxPoint x="2" y="19" as="offset" />
            </mxGeometry>
          </mxCell>
        </object>
        <object label="1" element="card" id="Sb3ObpHVFGHvWsoK8jhT-105">
          <mxCell style="resizable=0;align=right;verticalAlign=bottom;labelBackgroundColor=none;fontSize=11;fontStyle=1;spacing=4;" parent="Sb3ObpHVFGHvWsoK8jhT-103" connectable="0" vertex="1">
            <mxGeometry x="1" relative="1" as="geometry">
              <mxPoint x="21" y="1" as="offset" />
            </mxGeometry>
          </mxCell>
        </object>
        <object label="Transport" element="embeddable" table_name="" package_name="" xml_element="" json_element="" description="" id="vLi7R-2AJWSlNqhlG2X7-10">
          <mxCell style="swimlane;fontStyle=3;align=center;verticalAlign=top;childLayout=stackLayout;horizontal=1;startSize=26;horizontalStack=0;resizeParent=1;resizeLast=0;collapsible=1;marginBottom=0;rounded=0;shadow=0;strokeWidth=1;container=1;snapToPoint=1;fixDash=1;dropTarget=1;expand=1;treeMoving=1;fillColor=#14F89D;strokeColor=#006600;fontSize=11;" parent="Sb3ObpHVFGHvWsoK8jhT-4" vertex="1">
            <mxGeometry x="430" y="230" width="138" height="203.42" as="geometry">
              <mxRectangle x="230" y="140" width="160" height="26" as="alternateBounds" />
            </mxGeometry>
          </mxCell>
        </object>
        <object label="blNumber" type="string" element="field" label_name="N°BL/LTA" column_name="BL_NUMBER" max_size="150" min_size="" options="" optionsClass="" nullable="" unique="" xml_element="NUMERO_BL" sequence="1" label_nameEn="BL/LT Number" id="MMoQDWghkzFwq_rW3yn7-7">
          <mxCell style="text;strokeColor=none;fillColor=none;align=left;verticalAlign=top;spacingLeft=4;spacingRight=4;overflow=hidden;rotatable=0;points=[[0,0.5],[1,0.5]];portConstraint=eastwest;allowArrows=0;resizable=0;connectable=0;fontSize=11;" parent="vLi7R-2AJWSlNqhlG2X7-10" vertex="1">
            <mxGeometry y="26" width="138" height="34.666666666666664" as="geometry" />
          </mxCell>
        </object>
        <object label="travelNumber" type="string" element="field" label_name="N°Voyage" column_name="TRAVEL_NUMBER" max_size="150" min_size="" options="" optionsClass="" nullable="" unique="" xml_element="NUMERO_VOYAGE" sequence="2" label_nameEn="Travel Number" id="MMoQDWghkzFwq_rW3yn7-8">
          <mxCell style="text;strokeColor=none;fillColor=none;align=left;verticalAlign=top;spacingLeft=4;spacingRight=4;overflow=hidden;rotatable=0;points=[[0,0.5],[1,0.5]];portConstraint=eastwest;allowArrows=0;resizable=0;connectable=0;fontSize=11;" parent="vLi7R-2AJWSlNqhlG2X7-10" vertex="1">
            <mxGeometry y="60.666666666666664" width="138" height="34.666666666666664" as="geometry" />
          </mxCell>
        </object>
        <object label="leavingDate" type="date" element="field" label_name="Date de Départ" column_name="LEAVING_DATE" max_size="" min_size="" options="" optionsClass="" nullable="" unique="" xml_element="DATE_DEPART" sequence="5" label_nameEn="Leaving Date" id="MMoQDWghkzFwq_rW3yn7-9">
          <mxCell style="text;strokeColor=none;fillColor=none;align=left;verticalAlign=top;spacingLeft=4;spacingRight=4;overflow=hidden;rotatable=0;points=[[0,0.5],[1,0.5]];portConstraint=eastwest;allowArrows=0;resizable=0;connectable=0;fontSize=11;" parent="vLi7R-2AJWSlNqhlG2X7-10" vertex="1">
            <mxGeometry y="95.33333333333333" width="138" height="34.666666666666664" as="geometry" />
          </mxCell>
        </object>
        <object label="arrivalDate" type="date" element="field" label_name="Date d&#39;arrivée" column_name="ARRIVAL_DATE" max_size="" min_size="" options="" optionsClass="" nullable="" unique="" xml_element="DATE_ARRIVEE" sequence="6" label_nameEn="Arrival Date" id="MMoQDWghkzFwq_rW3yn7-10">
          <mxCell style="text;strokeColor=none;fillColor=none;align=left;verticalAlign=top;spacingLeft=4;spacingRight=4;overflow=hidden;rotatable=0;points=[[0,0.5],[1,0.5]];portConstraint=eastwest;allowArrows=0;resizable=0;connectable=0;fontSize=11;" parent="vLi7R-2AJWSlNqhlG2X7-10" vertex="1">
            <mxGeometry y="130" width="138" height="34.666666666666664" as="geometry" />
          </mxCell>
        </object>
        <mxCell id="vLi7R-2AJWSlNqhlG2X7-15" value="" style="line;strokeWidth=1;fillColor=none;align=left;verticalAlign=middle;spacingTop=-1;spacingLeft=3;spacingRight=3;rotatable=0;labelPosition=right;points=[];portConstraint=eastwest;fontSize=11;" parent="vLi7R-2AJWSlNqhlG2X7-10" vertex="1">
          <mxGeometry y="164.66666666666666" width="138" height="35.372027403477574" as="geometry" />
        </mxCell>
        <object label="transport" join_table="" join_column="" inverse_join_column="" mapped_by="" unique="" cascade="" inverse_name="" element="relation" fetch_type="" orphan_removal="" xml_element="TRANSPORT" sequence="16" label_name="Transport" id="vLi7R-2AJWSlNqhlG2X7-16">
          <mxCell style="endArrow=classic;shadow=0;strokeWidth=1;rounded=0;endFill=1;elbow=vertical;endSize=10;startSize=10;sourcePerimeterSpacing=0;startArrow=oval;startFill=1;align=center;snapToPoint=1;targetPerimeterSpacing=0;fontSize=11;spacingRight=0;spacingBottom=2;spacing=0;fixDash=1;entryX=0;entryY=0.5;entryDx=0;entryDy=0;fontColor=#4D9900;fillColor=#d5e8d4;strokeColor=#82B366;" parent="Sb3ObpHVFGHvWsoK8jhT-4" source="Sb3ObpHVFGHvWsoK8jhT-5" target="vLi7R-2AJWSlNqhlG2X7-10" edge="1">
            <mxGeometry x="-0.0123" relative="1" as="geometry">
              <mxPoint x="160" y="455.06493506493507" as="sourcePoint" />
              <mxPoint x="620" y="153.5902690208877" as="targetPoint" />
              <mxPoint as="offset" />
              <Array as="points" />
            </mxGeometry>
          </mxCell>
        </object>
        <object label="1" element="card" id="vLi7R-2AJWSlNqhlG2X7-17">
          <mxCell style="resizable=0;align=left;verticalAlign=bottom;labelBackgroundColor=none;fontSize=11;fontStyle=1;spacing=4;" parent="vLi7R-2AJWSlNqhlG2X7-16" connectable="0" vertex="1">
            <mxGeometry x="-1" relative="1" as="geometry">
              <mxPoint as="offset" />
            </mxGeometry>
          </mxCell>
        </object>
        <object label="1" element="card" id="vLi7R-2AJWSlNqhlG2X7-18">
          <mxCell style="resizable=0;align=right;verticalAlign=bottom;labelBackgroundColor=none;fontSize=11;fontStyle=1;spacing=4;" parent="vLi7R-2AJWSlNqhlG2X7-16" connectable="0" vertex="1">
            <mxGeometry x="1" relative="1" as="geometry">
              <mxPoint as="offset" />
            </mxGeometry>
          </mxCell>
        </object>
        <object label="invoice" join_table="" join_column="" inverse_join_column="" mapped_by="" unique="" cascade="" inverse_name="" element="relation" fetch_type="" orphan_removal="" xml_element="FACTURE" sequence="15" label_name="Facture" label_nameEn="Invoice" id="vLi7R-2AJWSlNqhlG2X7-19">
          <mxCell style="endArrow=classic;shadow=0;strokeWidth=1;rounded=0;endFill=1;elbow=vertical;endSize=10;startSize=10;sourcePerimeterSpacing=0;startArrow=oval;startFill=1;align=center;snapToPoint=1;targetPerimeterSpacing=0;fontSize=11;spacingRight=0;spacingBottom=2;spacing=0;fixDash=1;fontColor=#4D9900;fillColor=#d5e8d4;strokeColor=#82B366;" parent="Sb3ObpHVFGHvWsoK8jhT-4" source="Sb3ObpHVFGHvWsoK8jhT-5" target="Sb3ObpHVFGHvWsoK8jhT-43" edge="1">
            <mxGeometry x="-0.0123" relative="1" as="geometry">
              <mxPoint x="136.74500000000012" y="459.41074468085117" as="sourcePoint" />
              <mxPoint x="416" y="142.70335106382979" as="targetPoint" />
              <mxPoint as="offset" />
              <Array as="points" />
            </mxGeometry>
          </mxCell>
        </object>
        <object label="1" element="card" id="vLi7R-2AJWSlNqhlG2X7-20">
          <mxCell style="resizable=0;align=left;verticalAlign=bottom;labelBackgroundColor=none;fontSize=11;fontStyle=1;spacing=4;" parent="vLi7R-2AJWSlNqhlG2X7-19" connectable="0" vertex="1">
            <mxGeometry x="-1" relative="1" as="geometry">
              <mxPoint as="offset" />
            </mxGeometry>
          </mxCell>
        </object>
        <object label="1" element="card" id="vLi7R-2AJWSlNqhlG2X7-21">
          <mxCell style="resizable=0;align=right;verticalAlign=bottom;labelBackgroundColor=none;fontSize=11;fontStyle=1;spacing=4;" parent="vLi7R-2AJWSlNqhlG2X7-19" connectable="0" vertex="1">
            <mxGeometry x="1" relative="1" as="geometry">
              <mxPoint y="-5" as="offset" />
            </mxGeometry>
          </mxCell>
        </object>
        <object label="provenance" join_table="" join_column="" inverse_join_column="" mapped_by="" unique="" cascade="" inverse_name="" element="relation" fetch_type="" orphan_removal="" xml_element="PAYS_PROVENANCE" sequence="3" label_name="Pays de provenance" label_nameEn="Departure Country" id="vLi7R-2AJWSlNqhlG2X7-25">
          <mxCell style="endArrow=classic;shadow=0;strokeWidth=1;rounded=0;endFill=1;elbow=vertical;endSize=10;startSize=10;sourcePerimeterSpacing=0;startArrow=oval;startFill=1;align=center;snapToPoint=1;targetPerimeterSpacing=0;fontSize=11;spacingRight=0;spacingBottom=2;spacing=0;fixDash=1;entryX=0.75;entryY=1;entryDx=0;entryDy=0;edgeStyle=orthogonalEdgeStyle;" parent="Sb3ObpHVFGHvWsoK8jhT-4" source="vLi7R-2AJWSlNqhlG2X7-10" target="Sb3ObpHVFGHvWsoK8jhT-21" edge="1">
            <mxGeometry x="-0.0123" relative="1" as="geometry">
              <mxPoint x="526.0588235294117" y="188.02753441802253" as="sourcePoint" />
              <mxPoint x="680" y="88.16883116883116" as="targetPoint" />
              <mxPoint as="offset" />
            </mxGeometry>
          </mxCell>
        </object>
        <object label="n" element="card" id="vLi7R-2AJWSlNqhlG2X7-26">
          <mxCell style="resizable=0;align=left;verticalAlign=bottom;labelBackgroundColor=none;fontSize=11;fontStyle=1;spacing=4;" parent="vLi7R-2AJWSlNqhlG2X7-25" connectable="0" vertex="1">
            <mxGeometry x="-1" relative="1" as="geometry">
              <mxPoint as="offset" />
            </mxGeometry>
          </mxCell>
        </object>
        <object label="1" element="card" id="vLi7R-2AJWSlNqhlG2X7-27">
          <mxCell style="resizable=0;align=right;verticalAlign=bottom;labelBackgroundColor=none;fontSize=11;fontStyle=1;spacing=4;" parent="vLi7R-2AJWSlNqhlG2X7-25" connectable="0" vertex="1">
            <mxGeometry x="1" relative="1" as="geometry">
              <mxPoint x="18" y="35" as="offset" />
            </mxGeometry>
          </mxCell>
        </object>
        <object label="clearingPlace" join_table="" join_column="" inverse_join_column="" mapped_by="" unique="" cascade="" inverse_name="" element="relation" fetch_type="" orphan_removal="" xml_element="LIEU_DEDOUANEMENT" sequence="9" label_name="Lieu de dédouanement" label_nameEn="Clearing Place" id="vLi7R-2AJWSlNqhlG2X7-33">
          <mxCell style="endArrow=classic;shadow=0;strokeWidth=1;rounded=0;endFill=1;elbow=vertical;endSize=10;startSize=10;sourcePerimeterSpacing=0;startArrow=oval;startFill=1;align=center;snapToPoint=1;targetPerimeterSpacing=0;fontSize=11;spacingRight=0;spacingBottom=2;spacing=0;fixDash=1;entryX=0.25;entryY=1;entryDx=0;entryDy=0;exitX=0.25;exitY=0;exitDx=0;exitDy=0;" parent="Sb3ObpHVFGHvWsoK8jhT-4" source="vLi7R-2AJWSlNqhlG2X7-10" target="Sb3ObpHVFGHvWsoK8jhT-93" edge="1">
            <mxGeometry x="0.1817" y="4" relative="1" as="geometry">
              <mxPoint x="490.7647058823529" y="188.02753441802253" as="sourcePoint" />
              <mxPoint x="520" y="448.33648936170226" as="targetPoint" />
              <mxPoint as="offset" />
              <Array as="points" />
            </mxGeometry>
          </mxCell>
        </object>
        <object label="n" element="card" id="vLi7R-2AJWSlNqhlG2X7-34">
          <mxCell style="resizable=0;align=left;verticalAlign=bottom;labelBackgroundColor=none;fontSize=11;fontStyle=1;spacing=4;" parent="vLi7R-2AJWSlNqhlG2X7-33" connectable="0" vertex="1">
            <mxGeometry x="-1" relative="1" as="geometry">
              <mxPoint as="offset" />
            </mxGeometry>
          </mxCell>
        </object>
        <object label="1" element="card" id="vLi7R-2AJWSlNqhlG2X7-35">
          <mxCell style="resizable=0;align=right;verticalAlign=bottom;labelBackgroundColor=none;fontSize=11;fontStyle=1;spacing=4;" parent="vLi7R-2AJWSlNqhlG2X7-33" connectable="0" vertex="1">
            <mxGeometry x="1" relative="1" as="geometry">
              <mxPoint x="24" y="33" as="offset" />
            </mxGeometry>
          </mxCell>
        </object>
        <object label="RepCurrency" element="existingClass" description="" entity="org.guce.rep.entities.RepCurrency" xml="" id="MMoQDWghkzFwq_rW3yn7-2">
          <mxCell style="swimlane;fontStyle=3;align=center;verticalAlign=top;childLayout=stackLayout;horizontal=1;startSize=26;horizontalStack=0;resizeParent=1;resizeLast=0;collapsible=1;marginBottom=0;rounded=0;shadow=0;strokeWidth=1;fillColor=#f0a30a;strokeColor=#BD7000;container=1;snapToPoint=1;fixDash=1;dropTarget=1;expand=1;treeMoving=1;fontSize=11;fontColor=#000000;" parent="Sb3ObpHVFGHvWsoK8jhT-4" vertex="1">
            <mxGeometry x="290" y="651.8688891959105" width="150" height="58.60968085106383" as="geometry">
              <mxRectangle x="230" y="140" width="160" height="26" as="alternateBounds" />
            </mxGeometry>
          </mxCell>
        </object>
        <mxCell id="MMoQDWghkzFwq_rW3yn7-3" value="" style="line;strokeWidth=1;fillColor=none;align=left;verticalAlign=middle;spacingTop=-1;spacingLeft=3;spacingRight=3;rotatable=0;labelPosition=right;points=[];portConstraint=eastwest;fontSize=11;" parent="MMoQDWghkzFwq_rW3yn7-2" vertex="1">
          <mxGeometry y="26" width="150" height="13.210113151304316" as="geometry" />
        </mxCell>
        <object label="currency" join_table="" join_column="" inverse_join_column="" mapped_by="" unique="" cascade="" inverse_name="" element="relation" fetch_type="" orphan_removal="" xml_element="DEVISE_FACTURE" sequence="4" label_nameEn="Invoice Currency" label_name="Devise Facture" id="MMoQDWghkzFwq_rW3yn7-4">
          <mxCell style="endArrow=classic;shadow=0;strokeWidth=1;rounded=0;endFill=1;elbow=vertical;endSize=10;startSize=10;sourcePerimeterSpacing=0;startArrow=oval;startFill=1;align=center;snapToPoint=1;targetPerimeterSpacing=0;fontSize=11;spacingRight=0;spacingBottom=2;spacing=0;fixDash=1;exitX=0.75;exitY=1;exitDx=0;exitDy=0;" parent="Sb3ObpHVFGHvWsoK8jhT-4" source="Sb3ObpHVFGHvWsoK8jhT-43" target="MMoQDWghkzFwq_rW3yn7-2" edge="1">
            <mxGeometry x="-0.0123" relative="1" as="geometry">
              <mxPoint x="173.6407506702413" y="660.7808682558673" as="sourcePoint" />
              <mxPoint x="410.4235924932976" y="660.5056575652159" as="targetPoint" />
              <mxPoint as="offset" />
              <Array as="points" />
            </mxGeometry>
          </mxCell>
        </object>
        <object label="n" element="card" id="MMoQDWghkzFwq_rW3yn7-5">
          <mxCell style="resizable=0;align=left;verticalAlign=bottom;labelBackgroundColor=none;fontSize=11;fontStyle=1;spacing=4;" parent="MMoQDWghkzFwq_rW3yn7-4" connectable="0" vertex="1">
            <mxGeometry x="-1" relative="1" as="geometry">
              <mxPoint x="2" y="19" as="offset" />
            </mxGeometry>
          </mxCell>
        </object>
        <object label="1" element="card" id="MMoQDWghkzFwq_rW3yn7-6">
          <mxCell style="resizable=0;align=right;verticalAlign=bottom;labelBackgroundColor=none;fontSize=11;fontStyle=1;spacing=4;" parent="MMoQDWghkzFwq_rW3yn7-4" connectable="0" vertex="1">
            <mxGeometry x="1" relative="1" as="geometry">
              <mxPoint x="21" y="1" as="offset" />
            </mxGeometry>
          </mxCell>
        </object>
      </root>
    </mxGraphModel>
  </diagram>
</mxfile>
